<svg width="14" height="16" viewBox="0 0 14 16" fill="none" xmlns="http://www.w3.org/2000/svg">
<path fill-rule="evenodd" clip-rule="evenodd" d="M1.31802 1.31802C2.16193 0.474106 3.30653 0 4.5 0H12C12.5523 0 13 0.447715 13 1C13 1.55228 12.5523 2 12 2H4.5C3.83696 2 3.20107 2.26339 2.73223 2.73223C2.26339 3.20107 2 3.83696 2 4.5C2 5.16304 2.26339 5.79893 2.73223 6.26777C3.20107 6.73661 3.83696 7 4.5 7H9.5C10.6935 7 11.8381 7.47411 12.682 8.31802C13.5259 9.16193 14 10.3065 14 11.5C14 12.6935 13.5259 13.8381 12.682 14.682C11.8381 15.5259 10.6935 16 9.5 16H1C0.447715 16 0 15.5523 0 15C0 14.4477 0.447715 14 1 14H9.5C10.163 14 10.7989 13.7366 11.2678 13.2678C11.7366 12.7989 12 12.163 12 11.5C12 10.837 11.7366 10.2011 11.2678 9.73223C10.7989 9.26339 10.163 9 9.5 9H4.5C3.30653 9 2.16193 8.52589 1.31802 7.68198C0.474106 6.83807 0 5.69347 0 4.5C0 3.30653 0.474106 2.16193 1.31802 1.31802Z" fill="#CBD5DC"/>
</svg>